<?xml version="1.0" encoding="UTF-8"?>
<svg width="130px" height="21px" viewBox="0 0 130 21" version="1.1" xmlns="http://www.w3.org/2000/svg" xmlns:xlink="http://www.w3.org/1999/xlink">
    <g id="Page-1" stroke="none" stroke-width="1" fill="none" fill-rule="evenodd">
        <g id="Desktop-HD" transform="translate(-128.000000, -35.000000)" fill="#39B683">
            <g id="Top" transform="translate(-1.000000, -2.000000)">
                <g id="Logo" transform="translate(129.000000, 34.000000)">
                    <g id="1" transform="translate(1.000000, 3.000000)">
                        <path d="M34.0410156,2.67089844 L40.5537109,2.67089844 C44.0068359,2.67089844 46.1904297,5.01953125 46.1904297,8.25683594 C46.1904297,11.5195312 43.9941406,13.8046875 40.5410156,13.8046875 L36.65625,13.8046875 L36.65625,20 L34.0410156,20 L34.0410156,2.67089844 Z M36.65625,5.01953125 L36.65625,11.4814453 L39.09375,11.4814453 C41.8740234,11.4814453 43.5117188,10.859375 43.5117188,8.25683594 C43.5117188,6.1875 42.3056641,5.01953125 40.2363281,5.01953125 L36.65625,5.01953125 Z M52.8427734,20.2158203 C50.2529297,20.2158203 48.4628906,18.6035156 48.4628906,16.1025391 C48.4628906,13.7412109 50.1005859,12.1416016 53.1855469,12.1416016 L56.6259766,12.1416016 L56.6259766,10.8720703 C56.6259766,9.31054688 55.5976562,8.58691406 53.9726562,8.58691406 C52.3603516,8.58691406 51.6621094,9.22167969 51.4208984,10.1103516 L48.9707031,10.1103516 C49.1484375,7.87597656 50.8876953,6.390625 54.0488281,6.390625 C56.8671875,6.390625 59.1904297,7.57128906 59.1904297,10.9101562 L59.1904297,20 L56.7402344,20 L56.7402344,18.2607422 L56.6259766,18.2607422 C56.0039062,19.2890625 54.8232422,20.2158203 52.8427734,20.2158203 Z M53.6044922,18.0576172 C55.3056641,18.0576172 56.6259766,16.953125 56.6259766,15.4550781 L56.6259766,14.0078125 L53.5029297,14.0078125 C51.7890625,14.0078125 51.0527344,14.8457031 51.0527344,15.9628906 C51.0527344,17.3847656 52.2714844,18.0576172 53.6044922,18.0576172 Z M63.671875,20 L66.2744141,20 L66.2744141,11.9765625 C66.2744141,10.1738281 67.4042969,8.81542969 69.7021484,8.81542969 C70.1464844,8.81542969 70.6162109,8.84082031 70.8447266,8.90429688 L70.8447266,6.46679688 C70.5908203,6.42871094 70.2861328,6.390625 69.9560547,6.390625 C67.6582031,6.390625 66.6806641,7.77441406 66.3632812,8.67578125 L66.2363281,8.67578125 L66.2363281,6.59375 L63.671875,6.59375 L63.671875,20 Z M77.4082031,20.2158203 C74.8183594,20.2158203 73.0283203,18.6035156 73.0283203,16.1025391 C73.0283203,13.7412109 74.6660156,12.1416016 77.7509766,12.1416016 L81.1914062,12.1416016 L81.1914062,10.8720703 C81.1914062,9.31054688 80.1630859,8.58691406 78.5380859,8.58691406 C76.9257812,8.58691406 76.2275391,9.22167969 75.9863281,10.1103516 L73.5361328,10.1103516 C73.7138672,7.87597656 75.453125,6.390625 78.6142578,6.390625 C81.4326172,6.390625 83.7558594,7.57128906 83.7558594,10.9101562 L83.7558594,20 L81.3056641,20 L81.3056641,18.2607422 L81.1914062,18.2607422 C80.5693359,19.2890625 79.3886719,20.2158203 77.4082031,20.2158203 Z M78.1699219,18.0576172 C79.8710938,18.0576172 81.1914062,16.953125 81.1914062,15.4550781 L81.1914062,14.0078125 L78.0683594,14.0078125 C76.3544922,14.0078125 75.6181641,14.8457031 75.6181641,15.9628906 C75.6181641,17.3847656 76.8369141,18.0576172 78.1699219,18.0576172 Z M88.1357422,20 L90.7001953,20 L90.7001953,1.37597656 L88.1357422,1.37597656 L88.1357422,20 Z M95.4609375,20 L98.0253906,20 L98.0253906,6.59375 L95.4609375,6.59375 L95.4609375,20 Z M94.9912109,2.54394531 C94.9912109,3.52148438 95.7275391,4.23242188 96.7304688,4.23242188 C97.7841797,4.23242188 98.5078125,3.52148438 98.5078125,2.54394531 C98.5078125,1.55371094 97.7841797,0.842773438 96.7304688,0.842773438 C95.7148438,0.842773438 94.9912109,1.55371094 94.9912109,2.54394531 Z M102.697266,20 L105.261719,20 L105.261719,12.5478516 C105.261719,10.3642578 106.378906,8.73925781 108.600586,8.73925781 C110.289062,8.73925781 111.368164,9.69140625 111.368164,11.7353516 L111.368164,20 L113.932617,20 L113.932617,10.9228516 C113.932617,7.87597656 112.104492,6.390625 109.400391,6.390625 C106.645508,6.390625 105.706055,7.95214844 105.363281,8.99316406 L105.236328,8.99316406 L105.236328,6.59375 L102.697266,6.59375 L102.697266,20 Z M123.428711,20.2285156 C119.797852,20.2285156 117.601562,17.9814453 117.601562,14.2109375 L117.601562,12.3701172 C117.601562,8.58691406 120.013672,6.36523438 123.250977,6.36523438 C126.551758,6.36523438 128.900391,8.68847656 128.900391,12.3701172 L128.900391,13.9570312 L120.140625,13.9570312 L120.140625,14.6171875 C120.140625,16.5595703 121.308594,18.0068359 123.40332,18.0068359 C124.926758,18.0068359 125.955078,17.2958984 126.170898,16.4707031 L128.735352,16.4707031 C128.544922,18.0068359 126.919922,20.2285156 123.428711,20.2285156 Z M120.140625,12.1416016 L126.374023,12.1416016 L126.374023,11.9511719 C126.374023,9.90722656 125.142578,8.54882812 123.263672,8.54882812 C121.384766,8.54882812 120.140625,9.90722656 120.140625,11.9511719 L120.140625,12.1416016 Z" id="Paraline"></path>
                    </g>
                    <g id="New" transform="translate(0.000000, 5.000000)">
                        <polygon id="Rectangle" fill-opacity="0.15" transform="translate(12.498291, 9.000000) scale(-1, 1) translate(-12.498291, -9.000000) " points="12 0 18.996582 0 13 18 6 18"></polygon>
                        <polygon id="Rectangle" points="6 0 12.996582 0 7 18 0 18"></polygon>
                        <polygon id="Rectangle" points="18 0 24.996582 0 19 18 12 18"></polygon>
                    </g>
                </g>
            </g>
        </g>
    </g>
</svg>
